# Blender 3.6.2
# www.blender.org
mtllib Back.mtl
o Back
v 7.700000 -0.300000 0.300000
v 7.700000 0.300000 0.300000
v 7.700000 -0.300000 -0.300000
v 7.700000 0.300000 -0.300000
v 8.300000 -0.300000 0.300000
v 8.300000 0.300000 0.300000
v 8.300000 -0.300000 -0.300000
v 8.300000 0.300000 -0.300000
v 7.700000 -0.300000 -1.000000
v 7.700000 0.300000 -1.000000
v 8.300000 -0.300000 -1.000000
v 8.300000 0.300000 -1.000000
vn 1.0000 -0.0000 -0.0000
vn -0.0000 -0.0000 -1.0000
vn -0.0000 -1.0000 -0.0000
vn -0.0000 1.0000 -0.0000
vn -1.0000 -0.0000 -0.0000
vn -0.0000 -0.0000 1.0000
vt 0.375000 0.500000
vt 0.625000 0.500000
vt 0.625000 0.250000
vt 0.375000 0.250000
vt 0.000000 0.000000
s 0
f 7/1/1 12/2/1 8/2/1
f 10/3/2 11/1/2 9/4/2
f 3/4/3 11/1/3 7/1/3
f 8/2/4 10/3/4 4/3/4
f 4/3/5 9/4/5 3/4/5
f 1/5/5 4/5/5 3/5/5
f 7/5/2 4/5/2 8/5/2
f 8/5/4 2/5/4 6/5/4
f 5/5/1 8/5/1 6/5/1
f 6/5/6 1/5/6 5/5/6
f 5/5/3 3/5/3 7/5/3
f 7/1/1 11/1/1 12/2/1
f 10/3/2 12/2/2 11/1/2
f 3/4/3 9/4/3 11/1/3
f 8/2/4 12/2/4 10/3/4
f 4/3/5 10/3/5 9/4/5
f 1/5/5 2/5/5 4/5/5
f 7/5/2 3/5/2 4/5/2
f 8/5/4 4/5/4 2/5/4
f 5/5/1 7/5/1 8/5/1
f 6/5/6 2/5/6 1/5/6
f 5/5/3 1/5/3 3/5/3
