# Blender 3.6.2
# www.blender.org
mtllib Full.mtl
o Full
v -0.300000 -0.300000 0.300000
v -0.300000 0.300000 0.300000
v -0.300000 -0.300000 -0.300000
v -0.300000 0.300000 -0.300000
v 0.300000 -0.300000 0.300000
v 0.300000 0.300000 0.300000
v 0.300000 -0.300000 -0.300000
v 0.300000 0.300000 -0.300000
v -0.300000 1.000000 0.300000
v -0.300000 1.000000 -0.300000
v 0.300000 1.000000 0.300000
v 0.300000 1.000000 -0.300000
v -0.300000 -0.300000 1.000000
v -0.300000 0.300000 1.000000
v 0.300000 -0.300000 1.000000
v 0.300000 0.300000 1.000000
v -0.300000 -1.000000 0.300000
v -0.300000 -1.000000 -0.300000
v 0.300000 -1.000000 0.300000
v 0.300000 -1.000000 -0.300000
v -0.300000 -0.300000 -1.000000
v -0.300000 0.300000 -1.000000
v 0.300000 -0.300000 -1.000000
v 0.300000 0.300000 -1.000000
v 1.000000 0.300000 -0.300000
v 1.000000 -0.300000 -0.300000
v 1.000000 -0.300000 0.300000
v 1.000000 0.300000 0.300000
v -1.000000 -0.300000 -0.300000
v -1.000000 -0.300000 0.300000
v -1.000000 0.300000 0.300000
v -1.000000 0.300000 -0.300000
vn -0.0000 -1.0000 -0.0000
vn 1.0000 -0.0000 -0.0000
vn -0.0000 -0.0000 1.0000
vn -0.0000 1.0000 -0.0000
vn -0.0000 -0.0000 -1.0000
vn -1.0000 -0.0000 -0.0000
vt 0.375000 0.000000
vt 0.375000 0.250000
vt 0.375000 0.500000
vt 0.625000 0.500000
vt 0.375000 0.750000
vt 0.625000 0.750000
vt 0.625000 1.000000
vt 0.875000 0.500000
vt 0.625000 0.000000
vt 0.625000 0.250000
vt 0.375000 1.000000
vt 0.125000 0.750000
vt 0.125000 0.500000
vt 0.000000 0.000000
vt 0.875000 0.750000
s 0
f 1/1/1 29/2/1 3/2/1
f 7/3/2 24/4/2 8/4/2
f 5/5/3 28/6/3 6/6/3
f 2/7/4 16/6/4 6/6/4
f 7/3/5 18/2/5 3/2/5
f 8/4/2 11/6/2 6/6/2
f 10/8/4 11/6/4 12/4/4
f 2/9/6 10/10/6 4/10/6
f 6/6/3 9/7/3 2/7/3
f 4/10/5 12/4/5 8/4/5
f 16/6/3 13/11/3 15/5/3
f 6/6/2 15/5/2 5/5/2
f 1/1/6 14/9/6 2/9/6
f 5/5/1 13/12/1 1/12/1
f 20/3/1 17/12/1 18/13/1
f 3/2/6 17/1/6 1/1/6
f 5/5/2 20/3/2 7/3/2
f 1/12/3 19/5/3 5/5/3
f 22/10/5 23/3/5 21/2/5
f 3/2/1 23/3/1 7/3/1
f 8/4/4 22/10/4 4/10/4
f 4/10/6 21/2/6 3/2/6
f 25/4/2 27/5/2 26/3/2
f 7/3/1 27/5/1 5/5/1
f 6/6/4 25/4/4 8/4/4
f 8/4/5 26/3/5 7/3/5
f 31/9/6 29/2/6 30/1/6
f 3/2/5 32/10/5 4/10/5
f 2/9/3 30/1/3 1/1/3
f 4/10/4 31/9/4 2/9/4
f 1/14/6 4/14/6 3/14/6
f 7/14/5 4/14/5 8/14/5
f 8/14/4 2/14/4 6/14/4
f 5/14/2 8/14/2 6/14/2
f 6/14/3 1/14/3 5/14/3
f 5/14/1 3/14/1 7/14/1
f 1/1/1 30/1/1 29/2/1
f 7/3/2 23/3/2 24/4/2
f 5/5/3 27/5/3 28/6/3
f 2/7/4 14/7/4 16/6/4
f 7/3/5 20/3/5 18/2/5
f 8/4/2 12/4/2 11/6/2
f 10/8/4 9/15/4 11/6/4
f 2/9/6 9/9/6 10/10/6
f 6/6/3 11/6/3 9/7/3
f 4/10/5 10/10/5 12/4/5
f 16/6/3 14/7/3 13/11/3
f 6/6/2 16/6/2 15/5/2
f 1/1/6 13/1/6 14/9/6
f 5/5/1 15/5/1 13/12/1
f 20/3/1 19/5/1 17/12/1
f 3/2/6 18/2/6 17/1/6
f 5/5/2 19/5/2 20/3/2
f 1/12/3 17/12/3 19/5/3
f 22/10/5 24/4/5 23/3/5
f 3/2/1 21/2/1 23/3/1
f 8/4/4 24/4/4 22/10/4
f 4/10/6 22/10/6 21/2/6
f 25/4/2 28/6/2 27/5/2
f 7/3/1 26/3/1 27/5/1
f 6/6/4 28/6/4 25/4/4
f 8/4/5 25/4/5 26/3/5
f 31/9/6 32/10/6 29/2/6
f 3/2/5 29/2/5 32/10/5
f 2/9/3 31/9/3 30/1/3
f 4/10/4 32/10/4 31/9/4
f 1/14/6 2/14/6 4/14/6
f 7/14/5 3/14/5 4/14/5
f 8/14/4 4/14/4 2/14/4
f 5/14/2 7/14/2 8/14/2
f 6/14/3 2/14/3 1/14/3
f 5/14/1 1/14/1 3/14/1
