# Blender 3.6.2
# www.blender.org
mtllib Fwd.mtl
o Fwd
v 5.700000 -0.300000 0.300000
v 5.700000 0.300000 0.300000
v 5.700000 -0.300000 -0.300000
v 5.700000 0.300000 -0.300000
v 6.300000 -0.300000 0.300000
v 6.300000 0.300000 0.300000
v 6.300000 -0.300000 -0.300000
v 6.300000 0.300000 -0.300000
v 5.700000 -0.300000 1.000000
v 5.700000 0.300000 1.000000
v 6.300000 -0.300000 1.000000
v 6.300000 0.300000 1.000000
vn -0.0000 1.0000 -0.0000
vn -0.0000 -0.0000 1.0000
vn 1.0000 -0.0000 -0.0000
vn -1.0000 -0.0000 -0.0000
vn -0.0000 -1.0000 -0.0000
vn -0.0000 -0.0000 -1.0000
vt 0.625000 1.000000
vt 0.625000 0.750000
vt 0.375000 1.000000
vt 0.375000 0.750000
vt 0.375000 0.000000
vt 0.625000 0.000000
vt 0.125000 0.750000
vt 0.000000 0.000000
s 0
f 2/1/1 12/2/1 6/2/1
f 12/2/2 9/3/2 11/4/2
f 6/2/3 11/4/3 5/4/3
f 1/5/4 10/6/4 2/6/4
f 5/4/5 9/7/5 1/7/5
f 1/8/4 4/8/4 3/8/4
f 7/8/6 4/8/6 8/8/6
f 8/8/1 2/8/1 6/8/1
f 5/8/3 8/8/3 6/8/3
f 6/8/2 1/8/2 5/8/2
f 5/8/5 3/8/5 7/8/5
f 2/1/1 10/1/1 12/2/1
f 12/2/2 10/1/2 9/3/2
f 6/2/3 12/2/3 11/4/3
f 1/5/4 9/5/4 10/6/4
f 5/4/5 11/4/5 9/7/5
f 1/8/4 2/8/4 4/8/4
f 7/8/6 3/8/6 4/8/6
f 8/8/1 4/8/1 2/8/1
f 5/8/3 7/8/3 8/8/3
f 6/8/2 2/8/2 1/8/2
f 5/8/5 1/8/5 3/8/5
