# Blender 3.6.2
# www.blender.org
mtllib left.mtl
o Left
v 9.700000 -0.300000 0.300000
v 9.700000 0.300000 0.300000
v 9.700000 -0.300000 -0.300000
v 9.700000 0.300000 -0.300000
v 10.300000 -0.300000 0.300000
v 10.300000 0.300000 0.300000
v 10.300000 -0.300000 -0.300000
v 10.300000 0.300000 -0.300000
v 9.000000 -0.300000 -0.300000
v 9.000000 -0.300000 0.300000
v 9.000000 0.300000 0.300000
v 9.000000 0.300000 -0.300000
vn -0.0000 -1.0000 -0.0000
vn -1.0000 -0.0000 -0.0000
vn -0.0000 -0.0000 -1.0000
vn -0.0000 -0.0000 1.0000
vn -0.0000 1.0000 -0.0000
vn 1.0000 -0.0000 -0.0000
vt 0.375000 0.000000
vt 0.375000 0.250000
vt 0.625000 0.000000
vt 0.625000 0.250000
vt 0.000000 0.000000
s 0
f 1/1/1 9/2/1 3/2/1
f 11/3/2 9/2/2 10/1/2
f 3/2/3 12/4/3 4/4/3
f 2/3/4 10/1/4 1/1/4
f 4/4/5 11/3/5 2/3/5
f 1/5/2 4/5/2 3/5/2
f 7/5/3 4/5/3 8/5/3
f 8/5/5 2/5/5 6/5/5
f 5/5/6 8/5/6 6/5/6
f 6/5/4 1/5/4 5/5/4
f 5/5/1 3/5/1 7/5/1
f 1/1/1 10/1/1 9/2/1
f 11/3/2 12/4/2 9/2/2
f 3/2/3 9/2/3 12/4/3
f 2/3/4 11/3/4 10/1/4
f 4/4/5 12/4/5 11/3/5
f 1/5/2 2/5/2 4/5/2
f 7/5/3 3/5/3 4/5/3
f 8/5/5 4/5/5 2/5/5
f 5/5/6 7/5/6 8/5/6
f 6/5/4 2/5/4 1/5/4
f 5/5/1 1/5/1 3/5/1
