# Blender 3.6.1
# www.blender.org
mtllib Convex.mtl
o Cube
v -0.500000 -0.500000 1.000000
v -0.500000 0.500000 1.000000
v -1.000000 -1.000000 -1.000000
v -1.000000 1.000000 -1.000000
v 0.500000 -0.500000 1.000000
v 0.500000 0.500000 1.000000
v 1.000000 -1.000000 -1.000000
v 1.000000 1.000000 -1.000000
v -1.000000 -1.000000 1.000000
v -1.000000 1.000000 1.000000
v 1.000000 1.000000 1.000000
v 1.000000 -1.000000 1.000000
v -0.500000 -0.500000 1.000000
v -0.500000 0.500000 1.000000
v 0.500000 0.500000 1.000000
v 0.500000 -0.500000 1.000000
v -0.500000 -0.500000 2.000000
v -0.500000 0.500000 2.000000
v 0.500000 0.500000 2.000000
v 0.500000 -0.500000 2.000000
vn -1.0000 -0.0000 -0.0000
vn -0.0000 -0.0000 -1.0000
vn 1.0000 -0.0000 -0.0000
vn -0.0000 1.0000 -0.0000
vn -0.0000 -1.0000 -0.0000
vn -0.0000 -0.0000 1.0000
vt 0.375000 0.000000
vt 0.625000 0.000000
vt 0.625000 0.250000
vt 0.375000 0.250000
vt 0.625000 0.500000
vt 0.375000 0.500000
vt 0.625000 0.750000
vt 0.375000 0.750000
vt 0.562500 0.812500
vt 0.562500 0.937500
vt 0.125000 0.500000
vt 0.125000 0.750000
vt 0.875000 0.500000
vt 0.875000 0.750000
vt 0.437500 0.937500
vt 0.625000 1.000000
vt 0.375000 1.000000
vt 0.437500 0.812500
s 0
f 9/1/1 10/2/1 4/3/1 3/4/1
f 3/4/2 4/3/2 8/5/2 7/6/2
f 7/6/3 8/5/3 11/7/3 12/8/3
f 6/9/4 2/10/4 14/10/4 15/9/4
f 3/11/5 7/6/5 12/8/5 9/12/5
f 8/5/4 4/13/4 10/14/4 11/7/4
f 1/15/6 2/10/6 10/16/6 9/17/6
f 6/9/6 5/18/6 12/8/6 11/7/6
f 5/18/6 1/15/6 9/17/6 12/8/6
f 2/10/6 6/9/6 11/7/6 10/16/6
f 13/15/5 16/18/5 20/18/5 17/15/5
f 5/18/4 6/9/4 15/9/4 16/18/4
f 1/15/4 5/18/4 16/18/4 13/15/4
f 2/10/4 1/15/4 13/15/4 14/10/4
f 20/18/6 19/9/6 18/10/6 17/15/6
f 14/10/1 13/15/1 17/15/1 18/10/1
f 15/9/4 14/10/4 18/10/4 19/9/4
f 16/18/3 15/9/3 19/9/3 20/18/3
